<?xml version="1.0" encoding="utf-8"?>
<!DOCTYPE svg PUBLIC "-//W3C//DTD SVG 1.0//EN" "http://www.w3.org/TR/2001/REC-SVG-20010904/DTD/svg10.dtd">
<svg version="1.0" xmlns="http://www.w3.org/2000/svg" width="1024px" height="1024px" viewBox="0 0 1024 1024" preserveAspectRatio="xMidYMid meet">
 <g fill="#ebf5fe">
  <path d="M 0 512 l 0 -512 512 0 512 0 0 512 0 512 -512 0 -512 0 0 -512 z  m 92.5 462.2 c 22 -8.8 41.1 -16.3 42.5 -16.6 1.4 -0.4 3.4 -1.1 4.5 -1.6 1.1 -0.5 3.8 -1.6 6 -2.4 8 -2.8 18.1 -6.9 23.2 -9.3 2.9 -1.3 8.3 -3.5 12 -4.7 6.2 -2.1 9.8 -3.6 21.8 -8.6 2.2 -0.9 6.9 -2.7 10.5 -3.9 7.1 -2.5 10.6 -3.9 13.2 -5.2 1 -0.5 2.6 -0.9 3.5 -0.9 1 0 3.2 -0.9 4.9 -1.9 3.3 -2 12.2 -5.5 27.1 -10.6 5 -1.7 9.7 -3.6 10.5 -4.2 0.7 -0.5 4.7 -2.2 8.8 -3.7 23.9 -8.7 29.1 -10.6 34.5 -13.1 7.6 -3.4 9.9 -3.1 28.7 3.4 24.8 8.6 59.1 16.9 87.8 21 25.5 3.7 39.9 4.6 72 4.6 32.2 0 50.8 -1.5 77 -6.1 4.7 -0.9 12.7 -2.2 17.8 -2.9 5.1 -0.8 10.2 -2 11.4 -2.6 1.1 -0.6 6.2 -2.2 11.2 -3.5 9.7 -2.6 40.7 -12.1 44.1 -13.5 1.1 -0.5 5.8 -2.2 10.5 -3.9 4.6 -1.7 8.9 -3.5 9.5 -3.9 0.5 -0.4 5 -2.5 9.8 -4.5 4.9 -2.1 12 -5.6 15.9 -7.8 3.9 -2.2 10.7 -5.8 15.2 -7.9 16.6 -8.2 39.8 -23.1 63.2 -40.8 21 -15.9 54 -47.1 71.8 -68.1 49.7 -58.3 83.7 -128.1 97 -199 9.5 -50.6 9.8 -97.5 1.1 -148 -30.5 -175.6 -166.9 -318.9 -344.7 -362 -18 -4.4 -36.9 -7.8 -59.3 -10.7 -19 -2.5 -83.9 -2.4 -104.5 0.1 -46.2 5.6 -87.8 16 -126 31.6 -43.9 17.9 -89.4 45.6 -125.5 76.4 -14.1 12.1 -39.5 37.7 -52.8 53.3 -62.8 74 -99.4 164.7 -103.5 256.8 -0.4 9.4 -0.6 135.7 -0.4 280.7 l 0.3 263.7 4.7 -1.8 c 2.6 -1.1 22.7 -9.1 44.7 -17.9 z "/>
  <path d="M868.1 472.6 C 868.1 674.1 704.7 837.5 503.2 837.5 301.7 837.5 138.3 674.1 138.3 472.6 138.3 271.1 301.7 107.8 503.2 107.8 704.7 107.8 868.1 271.1 868.1 472.6 Z M468.5 827.8  m 60.5 -136.8 c 25.3 -3 45 -8 68.1 -17.5 36.7 -14.9 67.7 -37.9 92.7 -68.8 l 6.3 -7.7 -16.6 -10.8 c -9.1 -5.9 -26.9 -17.6 -39.6 -25.9 -12.6 -8.4 -23.2 -15.3 -23.5 -15.3 -0.4 0 -4.7 3.9 -9.7 8.6 -21.3 20 -47.5 33 -76.7 38 -13 2.2 -40.3 1.4 -54.4 -1.6 -24.7 -5.3 -47.6 -17.8 -65.1 -35.6 -15.4 -15.5 -26.5 -34.6 -32.1 -54.9 -2.7 -9.6 -2.8 -10.9 -2.9 -34.5 0 -23.6 0.1 -24.9 2.8 -35.1 7.2 -27.8 21.1 -50.1 41.5 -67 25.8 -21.4 54.8 -30 95.2 -28.6 22.7 0.9 37.6 4.5 57.6 14.2 11.1 5.4 23.8 14 32.5 22.2 l 4.8 4.4 7.8 -7.3 c 4.3 -4.1 20.1 -19 35.2 -33.3 l 27.3 -25.9 -6.3 -5.9 c -20 -18.2 -36 -29.3 -59.4 -40.7 -22.8 -11.2 -42.8 -17.6 -69.1 -22.2 -11.2 -2 -16.1 -2.3 -37.9 -2.2 -17.9 0.1 -28.3 0.6 -36.5 1.8 -54.2 8 -100.6 31.9 -136.3 70.3 -17.1 18.4 -27.1 33 -38.3 55.8 -32.5 66.6 -30.9 141.5 4.4 206 17.8 32.4 42.9 59.2 76.5 81.5 32 21.3 64.8 33.1 107.2 38.3 6.7 0.9 36.6 0.6 44.5 -0.3 z "/>
 </g>
 <g fill="#2469de">
  <path d="M 39.8 731.3 c -0.2 -147.3 0 -275.4 0.4 -284.8 4.1 -92.1 40.7 -182.8 103.5 -256.8 13.3 -15.6 38.7 -41.2 52.8 -53.3 58.9 -50.2 131.8 -85.8 206.5 -100.8 38.4 -7.7 51.5 -8.8 100 -9 44.4 -0.1 50.3 0.3 83.8 5.9 144.2 24.3 270.6 117.4 335.6 247.4 43 85.8 56.6 181.4 39 275.1 -13.3 70.9 -47.3 140.7 -97 199 -17.8 21 -50.8 52.2 -71.8 68.1 -23.4 17.7 -46.6 32.6 -63.2 40.8 -4.5 2.1 -11.3 5.7 -15.2 7.9 -3.9 2.2 -11 5.7 -15.9 7.8 -4.8 2 -9.3 4.1 -9.8 4.5 -0.6 0.4 -4.9 2.2 -9.5 3.9 -4.7 1.7 -9.4 3.4 -10.5 3.9 -3.4 1.4 -34.4 10.9 -44.1 13.5 -5 1.3 -10.1 2.9 -11.2 3.5 -1.2 0.6 -6.3 1.8 -11.4 2.6 -5.1 0.7 -13.1 2 -17.8 2.9 -27.1 4.7 -44.6 6.1 -80 6.1 -35.2 0 -49 -0.8 -75 -4.6 -31.5 -4.6 -70.6 -14.2 -95.7 -23.5 l -9.1 -3.5 -5.9 2.7 c -5.2 2.4 -10.4 4.3 -34.3 13 -4.1 1.5 -8.1 3.2 -8.8 3.7 -0.8 0.6 -5.5 2.5 -10.5 4.2 -14.9 5.1 -23.8 8.6 -27.1 10.6 -1.7 1 -3.9 1.9 -4.9 1.9 -0.9 0 -2.5 0.4 -3.5 0.9 -2.6 1.3 -6.1 2.7 -13.2 5.2 -3.6 1.2 -8.3 3 -10.5 3.9 -12 5 -15.6 6.5 -21.8 8.6 -3.7 1.2 -9.1 3.4 -12 4.7 -5.1 2.4 -15.2 6.5 -23.2 9.3 -2.2 0.8 -4.9 1.9 -6 2.4 -1.1 0.5 -3.1 1.2 -4.5 1.6 -1.4 0.3 -23.8 9.1 -49.8 19.5 -26 10.4 -47.5 18.9 -47.7 18.9 -0.2 0 -0.5 -120.5 -0.7 -267.7 z  M864.3 472.6 C 864.3 273.2 702.7 111.6 503.3 111.6 303.9 111.6 142.2 273.2 142.2 472.6 142.2 672 303.9 833.7 503.3 833.7 702.7 833.7 864.3 672 864.3 472.6 Z M538.3 824.5 "/>
  <path d="M 490.5 694.9 c -42.1 -2.6 -81.6 -15.9 -116.2 -38.9 -44.7 -29.8 -75.1 -68.2 -91.7 -115.9 -8.2 -23.6 -11.5 -41.6 -12.3 -68.1 -1.2 -40.4 5.9 -74.3 23.1 -109.5 11.2 -22.8 21.2 -37.4 38.3 -55.8 35.7 -38.4 82 -62.3 136.3 -70.3 8.6 -1.3 18.7 -1.7 39.5 -1.8 29.7 -0.1 40.5 1 61.9 6.5 30.5 7.8 62.7 23 86.6 41 10.3 7.8 29 24.8 29 26.4 0 1.1 -34.8 34.8 -65.4 63.3 l -9.9 9.2 -6.1 -5.8 c -13.2 -12.7 -33.9 -25.4 -50.1 -30.7 -11.3 -3.8 -26.4 -6.5 -38.5 -7.1 -49.9 -2.4 -90.1 16.7 -116 55.1 -8.4 12.5 -13.4 23.9 -17.7 40.4 -2.7 10 -2.8 11.7 -2.7 32.1 0 20.3 0.2 22.1 2.8 31.5 5.5 20.2 16.7 39.4 32.1 54.9 17.6 17.8 40.5 30.4 65.1 35.6 14.1 3 36.1 3.7 48.4 1.6 30.1 -5.2 56 -18.3 78.3 -39.6 l 10.5 -10 12.9 8.8 c 7 4.8 25.5 17 41.1 27.1 15.5 10.1 29.1 19.1 30.2 20 1.9 1.6 1.7 1.9 -5.7 11.1 -16.7 20.6 -33.9 36.3 -53.8 49.3 -44.4 28.9 -97.4 42.9 -150 39.6 z "/>
 </g>
</svg>